<svg width="289" height="282" viewBox="0 0 289 282" fill="none" xmlns="http://www.w3.org/2000/svg">
<path d="M0.572763 273.71C-2.44905 271.031 10.9774 271.229 17.6042 271.105C18.5584 272.445 19.2608 272.47 20.9838 272.78C21.779 274.827 3.59457 276.39 0.572763 273.71Z" fill="#989CA4"/>
<path d="M103.892 71.1658C103.278 73.3897 102.82 80.616 105.233 86.5457" stroke="#989CA4" stroke-width="2" stroke-linecap="round"/>
<path d="M101.937 87.999C107.664 85.9468 118.569 83.4355 118.569 90.5344V91.7664C118.569 92.5982 119.52 93.0694 120.177 92.56C129.371 85.4369 148.077 71.1657 154.668 60.3632" stroke="#989CA4" stroke-width="2" stroke-linecap="round"/>
<path d="M127.316 33.0821C132.942 37.5113 141.674 47.0718 133.187 50.9612C132.689 51.189 132.415 51.7404 132.556 52.2663C134.226 58.4498 133.962 71.2182 121.008 79.8649C120.816 79.9934 120.667 80.1846 120.597 80.4043L118.049 88.3767" stroke="#989CA4" stroke-width="2" stroke-linecap="round"/>
<path d="M121.748 65.6729C121.548 66.5518 122.067 68.3681 125.739 68.6024" stroke="#989CA4" stroke-width="2" stroke-linecap="round"/>
<path d="M131.598 42.603C131.598 44.5287 131.016 46.2222 130.136 47.4051C129.255 48.5875 128.14 49.1944 127.021 49.1944C125.902 49.1944 124.787 48.5875 123.906 47.4051C123.026 46.2222 122.444 44.5287 122.444 42.603C122.444 40.6773 123.026 38.9838 123.906 37.8009C124.787 36.6185 125.902 36.0116 127.021 36.0116C128.14 36.0116 129.255 36.6185 130.136 37.8009C131.016 38.9838 131.598 40.6773 131.598 42.603Z" stroke="#989CA4" stroke-width="2" stroke-linecap="round"/>
<path d="M110.359 48.462L121.711 44.434" stroke="#989CA4" stroke-width="2" stroke-linecap="round"/>
<path d="M119.148 40.7721C119.437 39.5517 120.501 36.7438 122.444 35.2792" stroke="#989CA4" stroke-width="2" stroke-linecap="round"/>
<path d="M127.57 43.7016C128.379 43.7016 129.035 43.2097 129.035 42.603C129.035 41.9963 128.379 41.5045 127.57 41.5045C126.761 41.5045 126.105 41.9963 126.105 42.603C126.105 43.2097 126.761 43.7016 127.57 43.7016Z" fill="#989CA4"/>
<path d="M122.589 163.812C121.915 156.613 121.375 140.728 124.612 134.776C127.85 128.823 130.96 120.309 133.148 116.864C140.504 112.617 158.037 96.323 169.316 65.1237" stroke="#989CA4" stroke-width="2" stroke-linecap="round"/>
<path d="M101.937 87.6443L59.8252 137.08" stroke="#989CA4" stroke-width="2" stroke-linecap="round"/>
<path d="M59.8252 137.232C62.9474 136.81 71.0635 137.014 78.5557 141.209C87.9213 146.453 97.837 155.675 122.444 163.812" stroke="#989CA4" stroke-width="2" stroke-linecap="round"/>
<path d="M122.444 163.812L114.021 169.671" stroke="#989CA4" stroke-width="2" stroke-linecap="round"/>
<path d="M59.83 137.08C59.2595 138.848 58.6932 142.972 63.4871 148.066" stroke="#989CA4" stroke-width="2" stroke-linecap="round"/>
<path d="M90.5851 101.193C83.7704 106.87 66.4904 118.845 51.8873 121.336C48.4802 122.74 42.6147 126.682 46.4114 131.223C50.2082 135.765 52.7395 141.295 53.5306 143.492C54.139 145.507 55.6536 148.315 59.3044 141.869" stroke="#989CA4" stroke-width="2" stroke-linecap="round"/>
<path d="M47.741 133.052C44.9119 134.72 38.3146 137.908 34.5585 137.314C30.8023 136.722 28.2983 138.303 27.5157 139.168C27.0943 139.848 26.8295 141.244 29.141 141.392C31.4524 141.541 34.1973 141.454 35.2808 141.392" stroke="#989CA4" stroke-width="2" stroke-linecap="round"/>
<path d="M38.2201 138.911C36.953 140.33 32.6448 143.557 25.549 145.106C24.1612 145.364 22.2907 146.849 24.825 148.591C26.9971 149.947 33.0068 148.707 36.0479 146.849" stroke="#989CA4" stroke-width="2" stroke-linecap="round"/>
<path d="M36.0149 146.601C33.6875 147.772 29.4983 150.892 31.3602 153.998C31.957 154.615 34.4752 154.664 39.7743 149.93L43.7129 146.601" stroke="#989CA4" stroke-width="2" stroke-linecap="round"/>
<path d="M43.9099 146.671L39.8886 150.03C38.7309 153.078 36.964 160.481 41.7165 156.375C45.1894 152.83 44.4582 149.807 45.9205 148.911C47.3828 148.015 50.6729 144.557 52.1352 142.939" stroke="#989CA4" stroke-width="2" stroke-linecap="round"/>
<path d="M44.0824 140.742C43.5953 142.249 43.2056 145.751 45.5438 147.699" stroke="#989CA4" stroke-width="2" stroke-linecap="round"/>
<path d="M88.3879 264.148C90.6914 263.537 95.3347 260.449 95.4799 252.979C95.6257 245.509 98.6928 232.655 100.208 227.162L115.12 161.248" stroke="#989CA4" stroke-width="2" stroke-linecap="round"/>
<path d="M120.613 55.0534C121.017 55.0534 121.345 54.8075 121.345 54.5041C121.345 54.2008 121.017 53.9548 120.613 53.9548C120.208 53.9548 119.88 54.2008 119.88 54.5041C119.88 54.8075 120.208 55.0534 120.613 55.0534Z" fill="#989CA4"/>
<path d="M122.993 57.2506C123.296 57.2506 123.542 57.0866 123.542 56.8844C123.542 56.6821 123.296 56.5182 122.993 56.5182C122.69 56.5182 122.444 56.6821 122.444 56.8844C122.444 57.0866 122.69 57.2506 122.993 57.2506Z" fill="#989CA4"/>
<path d="M117.683 58.7153C117.885 58.7153 118.049 58.3874 118.049 57.9829C118.049 57.5784 117.885 57.2505 117.683 57.2505C117.481 57.2505 117.317 57.5784 117.317 57.9829C117.317 58.3874 117.481 58.7153 117.683 58.7153Z" fill="#989CA4"/>
<path d="M63.5767 49.8058C72.4761 33.2647 85.7642 31.1849 91.2962 32.2125C102.785 14.6191 118.651 8.81521 128.316 14.0752C136.049 18.2829 129.715 28.8873 125.581 33.6637L121.569 27.8598C118.797 33.2284 110.87 31.2453 106.979 30.0361C110.323 37.0492 115.66 55.175 104.426 71.5712C93.1929 87.9675 79.0777 88.2573 71.9651 83.5419C65.4001 78.8868 54.6773 66.3475 63.5767 49.8058Z" fill="#989CA4"/>
<path d="M59.0928 266.345C60.3066 268.245 64.3495 271.831 70.8108 270.976" stroke="#989CA4" stroke-width="2" stroke-linecap="round"/>
<path d="M69.2696 138.178C66.9784 144.732 56.2436 158.205 46.655 175.136C40.2626 185.757 25.0172 209.473 15.1753 219.377C13.8486 221.258 12.6063 225.53 18.2509 227.569C22.5929 229.389 24.5469 233.613 25.1258 238.128C25.8495 243.772 35.0763 247.959 41.2275 243.772C46.1303 240.434 60.2281 216.394 70.8786 202.809C73.5903 199.35 76.0785 196.569 78.1347 194.981" stroke="#989CA4" stroke-width="2" stroke-linecap="round"/>
<path d="M71.1419 202.994L59.0928 266.345C65.2171 264.711 82.0407 261.625 92.416 261.625" stroke="#989CA4" stroke-width="2" stroke-linecap="round"/>
<path d="M11.1709 261.109C1.18982 241.761 10.4422 228.886 15.4463 225.698C23.2035 228.138 23.4131 236.271 24.6711 240.134L21.7678 248.084C19.825 251.504 20.9583 258.192 21.7678 261.109C25.1234 274.622 20.0587 275.921 17.5732 272.303L11.1709 261.109Z" fill="#989CA4"/>
<path d="M64.388 278.851C61.0259 276.188 67.6754 275.156 74.4229 274.767C76.7735 276.869 92.3867 277.586 93.1485 278.073C85.9656 280.408 67.3343 281.184 64.388 278.851Z" fill="#989CA4"/>
<path d="M98.1583 277.711C72.667 281.206 67.3766 271.123 67.9177 265.229C72.3017 263.398 84.3569 262.733 90.0399 262.317C88.4161 266.144 90.4457 265.645 91.8664 266.685C93.6934 267.933 98.7671 269.459 101.609 269.597C114.395 270.222 104.382 276.809 98.1583 277.711Z" fill="#989CA4"/>
<path d="M158.207 28.1298C159.375 27.4585 161.783 27.2143 162.076 31.6086" stroke="#989CA4" stroke-width="2" stroke-linecap="round"/>
<path d="M155.851 39.8478C155.973 38.1392 155.851 34.2452 154.386 32.341C152.555 29.9608 152.189 25.3834 155.851 25.7496C157.013 25.8659 157.753 26.8316 158.207 28.1298C158.897 30.1032 158.927 32.8447 158.78 34.5381" stroke="#989CA4" stroke-width="2" stroke-linecap="round"/>
<path d="M153.549 44.6082C153.401 42.9604 152.775 39.152 151.457 37.1013C149.809 34.5381 149.626 27.9467 153.104 28.6791" stroke="#989CA4" stroke-width="2" stroke-linecap="round"/>
<path d="M155.851 57.0587C154.935 57.0587 152.994 56.1799 152.555 52.6644C152.116 49.149 150.541 46.9277 149.809 46.2561C149.381 45.2187 148.93 43.0703 150.541 42.7773C151.49 42.6048 152.612 43.5243 153.549 44.6083L155.118 46.8054" stroke="#989CA4" stroke-width="2" stroke-linecap="round"/>
<path d="M164.273 40.7633C164.7 39.9701 165.115 37.9436 163.358 36.186C161.16 33.9888 161.71 31.9748 162.991 31.4255C164.273 30.8762 166.104 31.2424 167.935 36.7352C169.766 41.4956 172.476 53.5799 169.4 63.8332" stroke="#989CA4" stroke-width="2" stroke-linecap="round"/>
<path d="M172.637 12.1139L175.51 6.89087" stroke="#989CA4" stroke-width="2" stroke-linecap="round"/>
<path d="M147.795 14.5808L152.921 17.8765" stroke="#989CA4" stroke-width="2" stroke-linecap="round"/>
<path d="M157.096 1.30817L162.112 12.8398" stroke="#989CA4" stroke-width="2" stroke-linecap="round"/>
<path d="M174.849 27.9543C174.849 24.1098 175.743 17.6923 180.393 23.5044C183.255 27.6818 184.328 36.0003 182.182 40.214" stroke="#989CA4" stroke-width="2" stroke-linecap="round"/>
<path d="M165.37 31.496C164.774 29.3771 164.476 25.4297 168.053 26.5921L171.987 34.5837" stroke="#989CA4" stroke-width="2" stroke-linecap="round"/>
<path d="M171.987 34.5836L168.052 26.592C167.754 24.2309 169.304 20.4167 173.06 23.5044L174.849 27.9543L176.637 32.4041" stroke="#989CA4" stroke-width="2" stroke-linecap="round"/>
<path d="M176.724 45.89C175.747 48.0263 174.709 52.8842 178.371 55.2278" stroke="#989CA4" stroke-width="2" stroke-linecap="round"/>
<path d="M181.301 42.7773C182.155 40.3363 184.743 35.4903 188.259 35.6367C191.774 35.7832 188.991 40.397 188.259 42.0449L183.132 52.1151C182.033 54.8615 180.385 59.8051 184.23 65.481C188.075 70.6077 201.334 83.7905 215.616 85.9876" stroke="#989CA4" stroke-width="2" stroke-linecap="round"/>
<path d="M212.976 162.521C214.075 166.427 218.103 175.484 225.427 180.465M201.624 156.113L216.089 160.324L201.624 156.113ZM215.356 167.648C216.943 162.46 218.982 149.595 214.441 139.634C208.765 127.184 205.286 111.255 208.033 100.635C210.23 92.1396 218.225 90.8701 221.948 91.2974C227.807 91.9697 237.914 98.9874 237.328 118.029C236.595 141.832 231.103 162.155 223.23 177.901L215.356 167.648Z" stroke="#989CA4" stroke-width="2" stroke-linecap="round"/>
<path d="M209.497 176.253C209.497 166.916 209.436 160.324 208.399 157.761C222.461 163.034 239.525 161.667 246.3 160.324C246.483 160.751 247.984 164.828 252.525 177.718C258.201 193.83 254.173 247.66 252.525 253.702C250.877 259.745 246.483 259.928 240.074 259.195C234.948 258.609 228.173 244.548 225.427 237.59C212.61 213.605 209.497 187.21 209.497 176.253Z" fill="#989CA4"/>
<path d="M259.215 127.563C261.031 132.018 265.139 143.346 267.043 153.013C261.794 156.736 247.032 163.803 229.455 161.606L201.624 156.113C200.526 146.897 200.397 123.425 207.721 102.479C207.721 100.587 209.644 95.2888 213.892 92.9452" stroke="#989CA4" stroke-width="2" stroke-linecap="round"/>
<path d="M257.651 143.479C257.573 142.304 259.743 133.751 259.215 127.563C258.92 124.112 258.544 119.807 258.072 114.563C256.753 99.9157 251.541 88.6861 249.1 84.9019C246.659 81.1181 240.883 78.847 236.305 80.4948" stroke="#989CA4" stroke-width="2" stroke-linecap="round"/>
<path d="M254.137 241.602C255.715 207.26 248.715 174.813 244.835 162.155C254.621 160.834 262.33 156.604 265.158 155.197C267.999 165.911 272.158 193.416 273.867 206.013C278.129 219.808 277.222 239.645 276.235 247.839C276.866 252.829 272.815 254.81 270.71 255.177C259.504 258.846 254.992 247.656 254.137 241.602Z" fill="#989CA4"/>
<path d="M165.005 30.8763C168.118 35.8809 172.732 48.0138 169.217 65.298C169.522 69.021 174.955 81.3319 179.104 86.9031C185.512 95.5086 198.878 105.213 207.117 107.959" stroke="#989CA4" stroke-width="2" stroke-linecap="round"/>
<path d="M221.813 83.1365C219.391 81.6458 201.17 83.0827 197.627 60.1625C191.562 60.2336 188.264 55.2655 192.892 53.1394C197.825 50.5955 197.455 45.9251 196.561 43.1732C195.14 39.5644 195.055 35.7754 195.361 34.9828" stroke="#989CA4" stroke-width="2" stroke-linecap="round"/>
<path d="M202.659 51.9241C201.793 51.9342 201.078 50.8889 201.063 49.5892C201.048 48.2895 201.738 47.2277 202.604 47.2175C203.471 47.2074 204.185 48.2528 204.201 49.5524C204.216 50.8521 203.526 51.9139 202.659 51.9241Z" fill="#989CA4"/>
<path d="M206.357 44.3204C205.345 43.2391 202.728 41.6568 200.357 43.981" stroke="#989CA4" stroke-width="2" stroke-linecap="round"/>
<path d="M213.23 65.3826C211.371 68.2443 209.329 69.0569 205.363 67.2102" stroke="#989CA4" stroke-width="2" stroke-linecap="round"/>
<path d="M228.455 45.3238C228.886 46.27 229.247 48.4181 227.244 49.4405" stroke="#989CA4" stroke-width="2" stroke-linecap="round"/>
<path d="M249.802 35.6072C252.161 48.5173 244.778 58.2356 239.425 65.7066C233.709 62.6182 224.34 55.2739 227.933 54.4811C231.71 53.648 235.694 43.346 232.026 40.1946C227.722 36.497 223.843 42.0914 223.104 46.3334L219.638 40.3396C220.618 36.1472 221.003 28.7932 214.7 32.9159C208.396 37.0384 199.15 35.9586 195.315 34.9033C187.754 29.4908 176.005 16.8659 189.506 9.66628C200.735 3.67821 215.347 11.2488 224.267 18.0513C230.306 16.457 246.584 18.0047 249.802 35.6072Z" fill="#989CA4"/>
<path d="M239.006 64.8417C236.276 68.1279 234.92 70.8567 235.089 76.5096" stroke="#989CA4" stroke-width="2" stroke-linecap="round"/>
<path d="M255.956 281.072C233.252 281.988 222.449 277.433 222.449 274.298C222.449 273.016 221.717 271.735 226.844 269.904C224.647 272.894 225.452 278.582 246.252 277.411C249.608 277.594 257.164 276.715 260.533 271.735H262.181C278.66 267.523 288.364 270.98 288.364 274.115C288.364 277.25 274.815 280.312 255.956 281.072Z" fill="#989CA4"/>
<path d="M260.211 271.654C272.474 272.826 274.021 262.988 273.261 257.922" stroke="#989CA4" stroke-width="2" stroke-linecap="round"/>
<path d="M243.966 262.683C243.966 263.476 243.783 265.21 243.051 265.795C242.135 266.528 225.657 264.697 226.023 272.936C225.84 274.096 227.671 275.866 232.065 276.415C238.246 277.188 255.962 279.443 260.211 271.655C260.458 271.201 260.66 270.713 260.811 270.19L262.459 263.232" stroke="#989CA4" stroke-width="2" stroke-linecap="round"/>
</svg>
